<svg xmlns:dc="http://purl.org/dc/elements/1.1/" xmlns:cc="http://creativecommons.org/ns#" xmlns:rdf="http://www.w3.org/1999/02/22-rdf-syntax-ns#" xmlns:svg="http://www.w3.org/2000/svg" xmlns="http://www.w3.org/2000/svg" xmlns:xlink="http://www.w3.org/1999/xlink" id="svg500621" viewBox="0 0 1024 768" height="768px" width="1024px" version="1.1">
  <metadata id="metadata500627">
    <rdf:rdf>
      <cc:work rdf:about="">
        <dc:format>image/svg+xml</dc:format>
        <dc:type rdf:resource="http://purl.org/dc/dcmitype/StillImage"></dc:type>
      </cc:work>
    </rdf:rdf>
  </metadata>
  <defs id="defs500625"></defs>
  <linearGradient spreadMethod="pad" y2="30%" x2="-10%" y1="120%" x1="30%" id="3d_gradient2-logo-6a767a8e-f602-4bc2-b590-26da97a3f2f1">
    <stop id="stop500602" stop-opacity="1" stop-color="#ffffff" offset="0%"></stop>
    <stop id="stop500604" stop-opacity="1" stop-color="#000000" offset="100%"></stop>
  </linearGradient>
  <linearGradient gradientTransform="rotate(-30)" spreadMethod="pad" y2="30%" x2="-10%" y1="120%" x1="30%" id="3d_gradient3-logo-6a767a8e-f602-4bc2-b590-26da97a3f2f1">
    <stop id="stop500607" stop-opacity="1" stop-color="#ffffff" offset="0%"></stop>
    <stop id="stop500609" stop-opacity="1" stop-color="#cccccc" offset="50%"></stop>
    <stop id="stop500611" stop-opacity="1" stop-color="#000000" offset="100%"></stop>
  </linearGradient>
  <g id="logo-group">
    <image xlink:href="" id="container" x="272" y="144" width="480" height="480" style="display: none;" transform="translate(0 0)"></image>
    <g id="logo-center" transform="translate(-1.1368683772161603e-13 0)">
      <image xlink:href="" id="icon_container" style="display: none;" x="0" y="0"></image>
      <g id="slogan" style="font-style:normal;font-weight:400;font-size:32px;line-height:1;font-family:Montserrat;font-variant-ligatures:none;text-align:center;text-anchor:middle" transform="translate(0 0)"></g>
      <g id="title" style="font-style:normal;font-weight:700;font-size:72px;line-height:1;font-family:'Brandmark1 Bold';font-variant-ligatures:normal;text-align:center;text-anchor:middle" transform="translate(0 0)">
        <path id="path500630" style="font-style:normal;font-weight:700;font-size:72px;line-height:1;font-family:'Brandmark1 Bold';font-variant-ligatures:normal;text-align:center;text-anchor:middle" d="m 444.86675,2.52 h 12.744 l -14.76,-22.824 15.624,-17.28 h -13.824 l -13.608,15.264 v -33.192 h -10.872 V 2.52 h 10.872 V -7.704 l 4.32,-4.68 z" stroke-width="0" stroke-linejoin="miter" stroke-miterlimit="2" fill="#faa541" stroke="#faa541" transform="translate(0 345.58048) translate(237.6113663999999 -36.598720000000014) scale(2.56) translate(-420.17075 55.512)"></path>
        <path id="path500632" style="font-style:normal;font-weight:700;font-size:72px;line-height:1;font-family:'Brandmark1 Bold';font-variant-ligatures:normal;text-align:center;text-anchor:middle" d="m 483.10887,-38.016 0.072,2.304 c -2.88,-1.44 -6.048,-2.232 -9.28801,-2.232 -2.73599,0 -5.47199,0.504 -7.992,1.584 -2.448,1.08 -4.608,2.52 -6.55199,4.392 -1.87201,1.872 -3.31201,4.104 -4.392,6.552 -1.00801,2.52 -1.584,5.256 -1.584,7.992 0,2.736 0.57599,5.472 1.584,7.992 1.07999,2.448 2.51999,4.608 4.392,6.552 1.94399,1.872 4.10399,3.312 6.55199,4.392 2.52001,1.008 5.25601,1.584 7.992,1.584 3.24001,0 6.40801,-0.792 9.28801,-2.232 l -0.072,1.656 h 10.80001 v -40.536 z m -4.31999,28.944 c -1.44,0.864 -3.16801,1.368 -4.89601,1.368 -5.32799,0 -9.72,-4.392 -9.72,-9.72 0,-5.328 4.39201,-9.72 9.72,-9.72 1.87201,0 3.74401,0.504 5.256,1.584 1.584,0.936 2.80801,2.376 3.528,4.032 0.64801,1.296 0.936,2.664 0.936,4.104 0,1.728 -0.43199,3.384 -1.296,4.896 -0.864,1.44 -2.01599,2.664 -3.52799,3.456 z" stroke-width="0" stroke-linejoin="miter" stroke-miterlimit="2" fill="#aea860" stroke="#aea860" transform="translate(0 345.58048) translate(337.9687935999999 8.191040000000001) scale(2.56) translate(-453.37287 38.016)"></path>
        <path id="path500634" style="font-style:normal;font-weight:700;font-size:72px;line-height:1;font-family:'Brandmark1 Bold';font-variant-ligatures:normal;text-align:center;text-anchor:middle" d="m 499.634,2.52 h 10.872 v -41.544 l -10.872,3.6 z" stroke-width="0" stroke-linejoin="miter" stroke-miterlimit="2" fill="#61aa7f" stroke="#61aa7f" transform="translate(0 345.58048) translate(471.75728640000005 5.610559999999992) scale(2.56) translate(-499.634 39.024)"></path>
        <path id="path500636" style="font-style:normal;font-weight:700;font-size:72px;line-height:1;font-family:'Brandmark1 Bold';font-variant-ligatures:normal;text-align:center;text-anchor:middle" d="m 513.90012,2.52 h 33.40801 V -7.56 h -17.856 l 17.856,-22.392 v -7.632 h -32.328 v 10.08 h 16.70399 l -17.784,22.392 z" stroke-width="0" stroke-linejoin="miter" stroke-miterlimit="2" fill="#15ad9e" stroke="#15ad9e" transform="translate(0 345.58048) translate(523.6385536 9.296959999999984) scale(2.56) translate(-513.90012 37.584)"></path>
        <path id="path500638" style="font-style:normal;font-weight:700;font-size:72px;line-height:1;font-family:'Brandmark1 Bold';font-variant-ligatures:normal;text-align:center;text-anchor:middle" d="m 551.10275,2.52 h 10.872 v -41.544 l -10.872,3.6 z" stroke-width="0" stroke-linejoin="miter" stroke-miterlimit="2" fill="#ad6c29" stroke="#ad6c29" transform="translate(0 345.58048) translate(634.2372864 5.610559999999992) scale(2.56) translate(-551.10275 39.024)"></path>
        <path id="path500640" style="font-style:normal;font-weight:700;font-size:72px;line-height:1;font-family:'Brandmark1 Bold';font-variant-ligatures:normal;text-align:center;text-anchor:middle" d="m 599.20888,-31.608 c -3.456,-3.384 -7.99201,-5.256 -12.81601,-5.256 -2.59199,0 -5.03999,0.504 -7.272,1.512 v -2.664 h -10.8 v 17.64 c -0.072,0.576 -0.072,1.08 -0.072,1.656 h 0.072 V 2.52 h 10.8 V -19.8 c 0.504,-3.528 3.528,-6.264 7.272,-6.264 4.03201,0 7.34401,3.312 7.34401,7.344 V 2.52 h 10.79999 v -21.24 c 0,-4.896 -1.94399,-9.432 -5.32799,-12.888 z" stroke-width="0" stroke-linejoin="miter" stroke-miterlimit="2" fill="#d6cc7c" stroke="#d6cc7c" transform="translate(0 345.58048) translate(693.4913536000001 8.191040000000001) scale(2.56) translate(-568.24887 38.016)"></path>
      </g>
      <image xlink:href="" id="icon" style="display: none;" x="0" y="0"></image>
    </g>
  </g>
</svg>