<svg width="549" height="151" viewBox="0 0 549 151" fill="none" xmlns="http://www.w3.org/2000/svg">
<path d="M63.2218 148.562H95.8464L58.0608 90.1325L98.0583 45.8957H62.6688L27.8323 84.9715V0H0V148.562H27.8323V122.388L38.8916 110.408L63.2218 148.562Z" fill="#FAA541"/>
<path d="M176.482 44.7898L176.666 50.688C169.293 47.0016 161.183 44.9741 152.889 44.9741C145.884 44.9741 138.88 46.2643 132.429 49.0291C126.162 51.7939 120.633 55.4803 115.656 60.2726C110.864 65.065 107.177 70.7789 104.412 77.0458C101.832 83.497 100.357 90.5011 100.357 97.5053C100.357 104.509 101.832 111.514 104.412 117.965C107.177 124.232 110.864 129.761 115.656 134.738C120.633 139.53 126.162 143.217 132.429 145.981C138.88 148.562 145.884 150.036 152.889 150.036C161.183 150.036 169.293 148.009 176.666 144.323L176.482 148.562H204.13V44.7898H176.482ZM165.422 118.886C161.736 121.098 157.312 122.388 152.889 122.388C139.249 122.388 128.005 111.145 128.005 97.5053C128.005 83.8656 139.249 72.6221 152.889 72.6221C157.681 72.6221 162.473 73.9123 166.344 76.6771C170.399 79.0733 173.533 82.7597 175.376 86.999C177.035 90.3168 177.772 93.8189 177.772 97.5053C177.772 101.929 176.666 106.168 174.454 110.039C172.242 113.725 169.293 116.859 165.422 118.886Z" fill="#AEA860"/>
<path d="M234.146 148.562H261.978V42.2093L234.146 51.4253V148.562Z" fill="#61AA7F"/>
<path d="M286.027 148.562H371.552V122.757H325.84L371.552 65.4336V45.8957H288.792V71.7005H331.554L286.027 129.024V148.562Z" fill="#15AD9E"/>
<path d="M396.626 148.562H424.458V42.2093L396.626 51.4253V148.562Z" fill="#AD6C29"/>
<path d="M535.138 61.1942C526.29 52.5312 514.678 47.7389 502.329 47.7389C495.693 47.7389 489.426 49.0291 483.712 51.6096V44.7898H456.064V89.9482C455.88 91.4227 455.88 92.713 455.88 94.1875H456.064V148.562H483.712V91.4227C485.002 82.391 492.744 75.3869 502.329 75.3869C512.651 75.3869 521.129 83.8656 521.129 94.1875V148.562H548.777V94.1875C548.777 81.6538 543.801 70.0416 535.138 61.1942Z" fill="#D6CC7C"/>
</svg>
