<svg width="995" height="251" viewBox="0 0 995 251" fill="none" xmlns="http://www.w3.org/2000/svg">
<path d="M391.57 248.204H432.114L385.156 175.59L434.863 120.614H390.882L347.589 169.176V63.5767H313V248.204H347.589V215.677L361.333 200.787L391.57 248.204Z" fill="#FAA541"/>
<path d="M532.325 119.24L532.554 126.57C523.391 121.989 513.312 119.469 503.004 119.469C494.3 119.469 485.595 121.072 477.578 124.508C469.79 127.944 462.918 132.526 456.733 138.481C450.777 144.437 446.196 151.538 442.76 159.326C439.553 167.344 437.72 176.048 437.72 184.753C437.72 193.457 439.553 202.162 442.76 210.179C446.196 217.967 450.777 224.839 456.733 231.024C462.918 236.98 469.79 241.561 477.578 244.997C485.595 248.204 494.3 250.036 503.004 250.036C513.312 250.036 523.391 247.517 532.554 242.935L532.325 248.204H566.685V119.24H532.325ZM518.581 211.324C513.999 214.073 508.502 215.677 503.004 215.677C486.053 215.677 472.08 201.704 472.08 184.753C472.08 167.802 486.053 153.829 503.004 153.829C508.96 153.829 514.916 155.432 519.726 158.868C524.766 161.846 528.66 166.427 530.95 171.696C533.012 175.819 533.928 180.171 533.928 184.753C533.928 190.25 532.554 195.519 529.805 200.329C527.056 204.91 523.391 208.805 518.581 211.324Z" fill="#AEA860"/>
<path d="M603.988 248.204H638.577V116.033L603.988 127.486V248.204Z" fill="#61AA7F"/>
<path d="M668.464 248.204H774.751V216.135H717.942L774.751 144.895V120.614H671.9V152.683H725.043L668.464 223.923V248.204Z" fill="#15AD9E"/>
<path d="M805.912 248.204H840.501V116.033L805.912 127.486V248.204Z" fill="#AD6C29"/>
<path d="M978.049 139.627C967.054 128.861 952.623 122.905 937.275 122.905C929.029 122.905 921.241 124.508 914.14 127.715V119.24H879.78V175.361C879.551 177.193 879.551 178.797 879.551 180.629H879.78V248.204H914.14V177.193C915.743 165.969 925.364 157.265 937.275 157.265C950.103 157.265 960.64 167.802 960.64 180.629V248.204H995V180.629C995 165.053 988.815 150.622 978.049 139.627Z" fill="#D6CC7C"/>
<circle cx="54" cy="59" r="50" fill="#FAA541"/>
<circle cx="117.5" cy="228.5" r="21.5" fill="#D6CC7C"/>
<circle cx="225" cy="153" r="25" fill="#FAA541"/>
<circle cx="151.5" cy="47.5" r="30.5" fill="#61AA7F"/>
<circle cx="219.5" cy="39.5" r="30.5" fill="#61AA7F"/>
<circle cx="158.5" cy="208.5" r="30.5" fill="#61AA7F"/>
<circle cx="87.5" cy="164.5" r="33.5" fill="#AD6C29"/>
<g filter="url(#filter0_b_4_52)">
<rect width="250" height="250" rx="25" fill="url(#paint0_radial_4_52)" fill-opacity="0.25"/>
</g>
<circle cx="215" cy="215" r="20" fill="white"/>
<defs>
<filter id="filter0_b_4_52" x="-125" y="-125" width="500" height="500" filterUnits="userSpaceOnUse" color-interpolation-filters="sRGB">
<feFlood flood-opacity="0" result="BackgroundImageFix"/>
<feGaussianBlur in="BackgroundImageFix" stdDeviation="62.5"/>
<feComposite in2="SourceAlpha" operator="in" result="effect1_backgroundBlur_4_52"/>
<feBlend mode="normal" in="SourceGraphic" in2="effect1_backgroundBlur_4_52" result="shape"/>
</filter>
<radialGradient id="paint0_radial_4_52" cx="0" cy="0" r="1" gradientUnits="userSpaceOnUse" gradientTransform="translate(31 32.5) rotate(44.8031) scale(308.654)">
<stop stop-color="#FAA541"/>
<stop offset="0.967708" stop-color="#FAA541" stop-opacity="0.5"/>
</radialGradient>
</defs>
</svg>
