<svg width="682" height="188" viewBox="0 0 682 188" fill="none" xmlns="http://www.w3.org/2000/svg">
<path d="M78.5697 185.204H119.114L72.1558 112.59L121.863 57.6142H77.8825L34.589 106.176V0.576721H0V185.204H34.589V152.677L48.333 137.787L78.5697 185.204Z" fill="#AF87D7"/>
<path d="M219.325 56.2398L219.554 63.5699C210.391 58.9886 200.312 56.4688 190.004 56.4688C181.3 56.4688 172.595 58.0723 164.578 61.5083C156.79 64.9443 149.918 69.5256 143.733 75.4813C137.777 81.437 133.196 88.5381 129.76 96.3263C126.553 104.344 124.72 113.048 124.72 121.753C124.72 130.457 126.553 139.162 129.76 147.179C133.196 154.967 137.777 161.839 143.733 168.024C149.918 173.98 156.79 178.561 164.578 181.997C172.595 185.204 181.3 187.036 190.004 187.036C200.312 187.036 210.391 184.517 219.554 179.935L219.325 185.204H253.685V56.2398H219.325ZM205.581 148.324C200.999 151.073 195.502 152.677 190.004 152.677C173.053 152.677 159.08 138.704 159.08 121.753C159.08 104.802 173.053 90.8287 190.004 90.8287C195.96 90.8287 201.916 92.4322 206.726 95.8682C211.766 98.8461 215.66 103.427 217.95 108.696C220.012 112.819 220.928 117.171 220.928 121.753C220.928 127.25 219.554 132.519 216.805 137.329C214.056 141.91 210.391 145.805 205.581 148.324Z" fill="#AF87D7"/>
<path d="M290.988 185.204H325.577V53.0329L290.988 64.4861V185.204Z" fill="#AF87D7"/>
<path d="M355.464 185.204H461.751V153.135H404.942L461.751 81.8952V57.6142H358.9V89.6834H412.043L355.464 160.923V185.204Z" fill="#333333"/>
<path d="M492.912 185.204H527.501V53.0329L492.912 64.4861V185.204Z" fill="#333333"/>
<path d="M665.049 76.6266C654.054 65.8605 639.623 59.9048 624.275 59.9048C616.029 59.9048 608.241 61.5083 601.14 64.7152V56.2398H566.78V112.361C566.551 114.193 566.551 115.797 566.551 117.629H566.78V185.204H601.14V114.193C602.743 102.969 612.364 94.2647 624.275 94.2647C637.103 94.2647 647.64 104.802 647.64 117.629V185.204H682V117.629C682 102.053 675.815 87.6218 665.049 76.6266Z" fill="#333333"/>
</svg>
