<svg width="1237" height="250" viewBox="0 0 1237 250" fill="none" xmlns="http://www.w3.org/2000/svg">
<path d="M427.344 247.542H481.705L418.744 150.184L485.391 76.4739H426.423L368.376 141.584V0H322V247.542H368.376V203.93L386.804 183.967L427.344 247.542Z" fill="#AF87D7"/>
<path d="M616.064 74.6313L616.371 84.4593C604.086 78.3168 590.572 74.9384 576.752 74.9384C565.081 74.9384 553.41 77.0883 542.661 81.6951C532.219 86.302 523.005 92.4445 514.713 100.43C506.728 108.415 500.585 117.936 495.978 128.378C491.679 139.128 489.222 150.798 489.222 162.469C489.222 174.14 491.679 185.811 495.978 196.56C500.585 207.002 506.728 216.216 514.713 224.509C523.005 232.494 532.219 238.636 542.661 243.243C553.41 247.543 565.081 250 576.752 250C590.572 250 604.086 246.622 616.371 240.479L616.064 247.543H662.132V74.6313H616.064ZM597.636 198.096C591.494 201.781 584.123 203.931 576.752 203.931C554.025 203.931 535.29 185.197 535.29 162.469C535.29 139.742 554.025 121.007 576.752 121.007C584.737 121.007 592.722 123.157 599.172 127.764C605.929 131.757 611.15 137.899 614.221 144.963C616.985 150.491 618.214 156.327 618.214 162.469C618.214 169.84 616.371 176.904 612.685 183.354C609 189.496 604.086 194.717 597.636 198.096Z" fill="#AF87D7"/>
<path d="M712.147 247.543H758.523V70.3317L712.147 85.6879V247.543Z" fill="#AF87D7"/>
<path d="M798.595 247.542H941.101V204.545H864.934L941.101 109.029V76.4739H803.202V119.471H874.455L798.595 214.987V247.542Z" fill="#333333"/>
<path d="M982.88 247.543H1029.26V70.3317L982.88 85.6879V247.543Z" fill="#333333"/>
<path d="M1213.68 101.965C1198.94 87.5305 1179.59 79.5452 1159.01 79.5452C1147.95 79.5452 1137.51 81.6951 1127.99 85.9948V74.6313H1081.92V149.877C1081.61 152.334 1081.61 154.483 1081.61 156.94H1081.92V247.542H1127.99V152.334C1130.14 137.285 1143.04 125.614 1159.01 125.614C1176.21 125.614 1190.34 139.742 1190.34 156.94V247.542H1236.41V156.94C1236.41 136.056 1228.11 116.707 1213.68 101.965Z" fill="#333333"/>
<mask id="mask0_4_52" style="mask-type:alpha" maskUnits="userSpaceOnUse" x="0" y="0" width="250" height="250">
<rect width="250" height="250" rx="25" fill="#AF87D7"/>
</mask>
<g mask="url(#mask0_4_52)">
<rect width="250" height="250" rx="25" fill="url(#paint0_linear_4_52)" fill-opacity="0.4"/>
<rect width="250" height="250" rx="25" fill="black" fill-opacity="0.15"/>
<g filter="url(#filter0_f_4_52)">
<path d="M104 59C104 86.6142 81.6142 109 54 109C26.3858 109 4 86.6142 4 59C4 31.3858 26.3858 9 54 9C81.6142 9 104 31.3858 104 59Z" fill="#AF87D7"/>
<path d="M139 228.5C139 240.374 129.374 250 117.5 250C105.626 250 96 240.374 96 228.5C96 216.626 105.626 207 117.5 207C129.374 207 139 216.626 139 228.5Z" fill="#D6CC7C"/>
<path d="M250 153C250 166.807 238.807 178 225 178C211.193 178 200 166.807 200 153C200 139.193 211.193 128 225 128C238.807 128 250 139.193 250 153Z" fill="#AF87D7"/>
<path d="M182 47.5C182 64.3447 168.345 78 151.5 78C134.655 78 121 64.3447 121 47.5C121 30.6553 134.655 17 151.5 17C168.345 17 182 30.6553 182 47.5Z" fill="#61AA7F"/>
<path d="M250 39.5C250 56.3447 236.345 70 219.5 70C202.655 70 189 56.3447 189 39.5C189 22.6553 202.655 9 219.5 9C236.345 9 250 22.6553 250 39.5Z" fill="#61AA7F"/>
<path d="M189 208.5C189 225.345 175.345 239 158.5 239C141.655 239 128 225.345 128 208.5C128 191.655 141.655 178 158.5 178C175.345 178 189 191.655 189 208.5Z" fill="#61AA7F"/>
<path d="M121 164.5C121 183.002 106.002 198 87.5 198C68.9985 198 54 183.002 54 164.5C54 145.998 68.9985 131 87.5 131C106.002 131 121 145.998 121 164.5Z" fill="#AD6C29"/>
</g>
<path d="M235 215C235 226.046 226.046 235 215 235C203.954 235 195 226.046 195 215C195 203.954 203.954 195 215 195C226.046 195 235 203.954 235 215Z" fill="white"/>
</g>
<defs>
<filter id="filter0_f_4_52" x="-121" y="-116" width="496" height="491" filterUnits="userSpaceOnUse" color-interpolation-filters="sRGB">
<feFlood flood-opacity="0" result="BackgroundImageFix"/>
<feBlend mode="normal" in="SourceGraphic" in2="BackgroundImageFix" result="shape"/>
<feGaussianBlur stdDeviation="62.5" result="effect1_foregroundBlur_4_52"/>
</filter>
<linearGradient id="paint0_linear_4_52" x1="0" y1="0" x2="250" y2="250" gradientUnits="userSpaceOnUse">
<stop stop-color="#AF87D7"/>
<stop offset="1" stop-color="#AF87D7" stop-opacity="0"/>
</linearGradient>
</defs>
</svg>
